<?xml version="1.0" encoding="UTF-8"?>
<svg viewBox="0 0 191.95241 704.44104" xmlns="http://www.w3.org/2000/svg">
 <g transform="translate(-11.973 156.22)" stroke="#000">
  <path d="m90.335-154.26s1.5971 414.82 0 418.81-33.539 96.624-33.539 96.624v185.09" fill="none" stroke-width="3.9148"/>
  <path d="m56.953 347.24-6.4606-3.5544-3.0328 1.5605-21.175-16.375c4.5598-1.9732 5.6418-6.5201 7.6831-9.9704 6e-3 0.1904-0.0192-0.099 2.8501 1.1713 0.75741-3.6437 2.1716-6.4467 2.1716-6.4467s-0.84699 1.694 0.84699 6.2113c4.1506 7.8614 16.055 25.837 17.116 27.404zm9.1705 11.289s8.4399 9.8685 14.086 11.562 23.433-5.9289 23.433-5.9289l29.588-1.791 0.6626-12.99 6.1698-0.6096s6.2113 8.9376 11.011 12.89 13.27 4.2349 17.222 7.0582 19.198 18.223 21.739 19.07 5.082-4.7997 5.082-4.7997l8.4699-14.31s0.56466-11.293-0.56466-13.552c-1.7722-3.5443-7.0582-1.1293-7.0582-1.1293s-1.6656 9.9099-3.9242 11.039-9.6276-1.1577-9.6276-1.1577l-28.515-31.903s-2.2586-6.7759-7.0582-8.4699-16.375 0.2823-17.787 0.847-24.563 7.3405-31.056 7.6229-20.892-34.727-20.892-34.727 1.8739 2.7809 5.4602 4.2381c2.1364-3.2121 1.1206-3.6243 2.101-3.2563 4.0672 1.5265 10.028 5.7306 11.073 4.9471 2.2586-1.694 3.6018-24.357 3.8841-27.463 0.039-0.4294 4.0206-1.5583 3.7108-2.9885-0.6381-2.9456-5.2896-11.162-5.4497-13.184-1.8671-6.2156-2.4511-7.4425-10.333-9.1602-2.541 0.5646-4.235 5.0819-3.6703 6.4936s-0.16539 4.3401 0.68161 5.1871 4.118 3.8474 5.812 6.9531-0.14532 19.061-0.14532 19.061-5.2331-7.0582-8.0564-9.0346-6.3023-1.6196-13.6-7.8225c-5.9289 0.7058-10.384 2.0306-10.384 2.0306s1.1293-5.0819 0.56465-11.011-0.84698-9.5993-0.84698-9.5993l3.1056-2.8233s-2.2586-7.3406-7.9052-11.858-13.834-3.388-14.116-3.388c-15.81 4.5173-15.246 14.116-14.116 19.763s2.8233 9.5992 2.8233 9.5992l3.9526-1.1293s4.7996 5.082 4.5173 8.1876-0.28233 7.9052-1.694 9.5992-9.3169 13.27-9.3169 13.27c-4.7868 16.468-7.8187 8.5326-12.987 43.196 5.2128 7.8597 29.08 15.528 32.75 18.352s13.27 10.164 13.27 10.164 4.5173-2.2586 5.9289-3.6702c0.46701-0.4671 1.5841-2.1361 2.0064-3.375z" stroke-width=".39148"/>
 </g>
</svg>
