<?xml version="1.0" standalone="no"?>
<!DOCTYPE svg PUBLIC "-//W3C//DTD SVG 20010904//EN"
 "http://www.w3.org/TR/2001/REC-SVG-20010904/DTD/svg10.dtd">
<svg version="1.0" xmlns="http://www.w3.org/2000/svg"
 width="700.000000pt" height="700.000000pt" viewBox="0 0 700.000000 700.000000"
 preserveAspectRatio="xMidYMid meet">
<metadata>
Created by potrace 1.11, written by Peter Selinger 2001-2013
</metadata>
<g transform="translate(0.000000,700.000000) scale(0.100000,-0.100000)"
fill="#000000" stroke="none">
<path d="M4490 6231 c-74 -26 -254 -89 -400 -140 -146 -51 -274 -96 -285 -101
-11 -5 -164 -59 -340 -120 -176 -61 -329 -115 -340 -120 -11 -4 -49 -18 -85
-30 -36 -12 -74 -26 -85 -30 -11 -5 -74 -27 -140 -50 -66 -23 -195 -68 -286
-100 -101 -36 -171 -55 -180 -50 -8 4 -151 56 -319 115 -168 59 -417 146 -555
195 -887 314 -1324 461 -1372 463 -25 1 -42 -7 -68 -33 l-35 -34 0 -2298 c0
-2264 0 -2298 19 -2317 27 -27 56 -41 201 -96 204 -78 1140 -413 1270 -455 14
-4 97 -34 185 -65 88 -31 171 -60 185 -65 14 -4 104 -36 200 -70 221 -78 289
-100 308 -100 15 0 158 46 337 110 61 21 202 71 315 110 113 39 212 73 220 77
8 3 20 7 25 9 14 4 318 111 495 174 80 29 226 80 325 115 99 35 262 92 362
127 l181 65 364 -129 c200 -70 395 -139 433 -152 238 -84 314 -110 430 -151
72 -26 155 -55 185 -65 30 -10 134 -46 230 -80 439 -155 604 -210 626 -210 13
0 42 16 64 36 l40 36 0 2297 c0 2012 -2 2299 -15 2318 -22 32 -100 62 -810
318 -66 24 -212 76 -325 115 -113 40 -268 95 -345 122 -77 27 -151 54 -165 58
-14 4 -97 34 -185 65 -209 74 -529 185 -529 184 -1 0 -62 -22 -136 -48z
m-4058 -312 c95 -33 243 -85 328 -115 85 -31 173 -61 195 -69 22 -7 150 -52
285 -100 435 -154 924 -327 959 -338 18 -6 37 -20 41 -32 12 -31 13 -335 13
-2348 0 -1284 -4 -1882 -11 -1889 -7 -7 -56 6 -159 42 -197 69 -480 169 -683
240 -91 32 -327 115 -525 185 -198 70 -421 149 -495 175 l-135 47 -5 164 c-5
165 -6 3850 -1 3989 3 71 8 110 16 110 2 0 81 -27 177 -61z m4071 19 c8 -72 3
-4192 -6 -4208 -4 -9 -295 -116 -689 -255 -375 -132 -734 -258 -798 -281 -420
-149 -502 -176 -508 -169 -4 3 -7 958 -7 2120 0 1882 2 2116 15 2130 9 8 74
35 145 61 209 73 323 113 440 154 61 21 155 55 210 75 55 20 163 58 240 85 77
27 318 112 535 189 217 77 400 140 406 141 7 0 14 -19 17 -42z m327 23 c30
-11 114 -41 185 -66 149 -53 282 -100 440 -155 140 -49 379 -134 565 -200 80
-28 197 -69 260 -91 63 -22 122 -43 130 -46 8 -3 20 -7 25 -9 14 -4 254 -90
288 -103 15 -6 28 -16 28 -23 1 -7 4 -24 6 -38 5 -28 10 -3931 5 -4106 l-3
-111 -37 13 c-20 7 -113 40 -207 73 -93 33 -235 83 -315 111 -80 28 -194 69
-255 90 -60 21 -175 61 -255 90 -80 28 -226 80 -325 115 -99 35 -279 98 -400
142 l-220 78 1 1895 c1 1881 3 2323 12 2348 5 16 8 15 72 -7z"/>
<path d="M523 4393 c-6 -16 2 -272 10 -279 3 -3 119 -7 257 -9 139 -2 254 -6
257 -9 3 -2 5 -329 5 -725 l-1 -719 185 0 184 1 0 51 c1 28 1 354 1 724 l1
672 56 1 c31 0 152 1 267 2 l210 2 0 143 c0 79 -4 146 -9 150 -5 3 -327 6
-714 6 -529 1 -706 -2 -709 -11z"/>
<path d="M3418 4425 c-2 -2 -16 -5 -33 -8 -154 -26 -253 -75 -355 -175 -145
-144 -217 -298 -236 -507 -11 -121 -8 -390 5 -478 28 -178 93 -309 211 -427
147 -147 281 -200 502 -198 223 1 370 55 507 184 42 40 89 94 103 121 33 61
73 182 83 251 l7 52 -186 0 -186 0 -1 -37 c-1 -91 -71 -198 -155 -239 -54 -27
-68 -29 -169 -29 -100 0 -115 2 -161 27 -106 56 -170 167 -189 328 -8 67 -7
339 0 435 17 207 97 338 231 380 72 22 185 23 251 1 93 -31 169 -120 189 -222
5 -21 9 -42 10 -46 1 -5 2 -14 3 -20 1 -10 46 -14 182 -15 l181 -3 -6 48 c-28
228 -146 401 -339 496 -51 25 -112 50 -137 55 -25 5 -58 13 -75 16 -31 7 -232
15 -237 10z"/>
<path d="M5718 4424 c-2 -1 -28 -5 -58 -9 -89 -11 -228 -62 -303 -112 -154
-102 -232 -286 -193 -454 21 -90 56 -150 136 -229 91 -91 183 -141 416 -228
197 -74 269 -109 313 -156 29 -29 35 -45 39 -90 7 -81 -4 -118 -44 -158 -49
-50 -121 -69 -243 -64 -199 8 -280 73 -316 252 l-6 31 -175 0 -175 0 2 -71 c6
-175 120 -328 320 -427 218 -108 530 -108 754 0 119 58 219 171 241 274 10 44
11 197 3 244 -14 72 -56 146 -120 212 -101 102 -202 158 -441 245 -218 79
-297 123 -328 185 -19 37 -17 122 4 157 42 71 153 110 281 101 143 -10 217
-69 249 -196 l11 -46 175 0 175 0 -1 60 c-1 63 -38 172 -78 230 -86 124 -209
197 -411 242 -22 4 -223 11 -227 7z"/>
</g>
</svg>
